<?xml version="1.0" standalone="no"?>
<!DOCTYPE svg PUBLIC "-//W3C//DTD SVG 20010904//EN"
 "http://www.w3.org/TR/2001/REC-SVG-20010904/DTD/svg10.dtd">
<svg version="1.0" xmlns="http://www.w3.org/2000/svg"
 width="1024.000000pt" height="1024.000000pt" viewBox="0 0 1024.000000 1024.000000"
 preserveAspectRatio="xMidYMid meet">

<g transform="translate(0.000000,1024.000000) scale(0.100000,-0.100000)"
fill="#000000" stroke="none">
<path d="M3478 7220 c-253 -63 -444 -251 -515 -510 -17 -61 -18 -157 -18
-1585 l0 -1520 23 -80 c73 -251 247 -427 497 -501 56 -17 153 -19 1615 -22
1047 -2 1577 1 1623 8 274 42 474 212 564 480 l28 85 3 1500 c2 1107 0 1520
-8 1575 -39 246 -203 454 -430 544 -117 47 -97 46 -1748 45 -1493 0 -1560 -1
-1634 -19z m2172 -470 c11 -11 22 -30 25 -42 3 -13 4 -231 3 -486 l-3 -462
489 0 488 0 34 -34 c21 -21 34 -44 34 -60 0 -23 -12 -32 -102 -77 -545 -273
-1203 -828 -1521 -1282 -34 -49 -67 -96 -73 -105 -10 -14 -24 -3 -103 79 -163
173 -306 273 -466 326 l-80 27 -395 6 c-356 4 -399 7 -423 23 -15 9 -29 27
-32 40 -3 12 -4 244 -3 515 l3 494 28 24 28 24 492 0 492 0 -3 452 c-2 248 -1
466 3 485 3 19 15 43 26 54 18 18 37 19 529 19 494 0 511 -1 530 -20z m1615
-1180 l-20 -9 20 0 c19 -1 20 -7 18 -207 l-2 -206 -108 -60 c-138 -76 -329
-203 -462 -307 -57 -44 -108 -78 -114 -74 -6 3 -7 1 -4 -4 4 -6 -34 -45 -84
-88 -88 -76 -123 -96 -73 -42 14 15 21 27 17 27 -14 0 -55 -49 -49 -58 5 -8
-132 -147 -223 -226 -22 -20 -22 -20 -15 0 8 20 6 20 -16 -10 -10 -13 -10 -17
-2 -12 31 19 6 -16 -60 -81 -45 -43 -80 -70 -90 -68 -10 2 -18 -1 -18 -7 0 -6
7 -8 15 -4 23 8 18 -8 -11 -35 -14 -13 -60 -66 -102 -117 -45 -56 -78 -88 -82
-82 -5 8 -9 6 -14 -5 -3 -9 -11 -13 -17 -9 -8 4 -9 3 -5 -5 6 -9 11 -9 22 0
23 19 16 -6 -8 -28 -13 -11 -33 -20 -45 -18 -14 1 -19 -3 -16 -12 4 -10 9 -11
19 -2 8 7 14 7 14 1 0 -16 -27 -34 -35 -22 -8 13 -25 13 -25 -1 0 -5 4 -8 9
-4 25 15 19 -20 -10 -56 -18 -23 -50 -68 -71 -101 -21 -32 -42 -57 -47 -54 -5
3 -8 -2 -7 -12 0 -9 -5 -16 -12 -14 -8 1 -11 -2 -7 -8 10 -16 -14 -39 -36 -35
-11 2 -17 0 -14 -6 4 -5 11 -7 16 -4 15 10 10 -11 -9 -36 -11 -13 -31 -45 -46
-72 -16 -26 -33 -44 -38 -40 -6 3 -8 1 -5 -4 4 -6 -34 -77 -83 -159 -50 -82
-90 -154 -90 -161 0 -7 -3 -13 -7 -13 -11 0 -68 102 -67 117 1 7 -3 10 -9 6
-6 -4 -8 0 -4 11 4 9 3 15 -2 12 -5 -3 -30 29 -57 72 -107 174 -245 370 -357
509 -34 42 -55 78 -51 85 4 6 3 8 -3 5 -5 -3 -16 2 -24 11 -8 10 -35 43 -61
74 -27 31 -48 59 -48 62 0 8 24 3 31 -7 3 -4 11 -2 17 6 9 10 6 13 -16 13 -18
-1 -26 4 -24 13 3 12 0 12 -12 2 -12 -10 -22 -4 -58 36 -23 26 -87 94 -141
150 -64 66 -97 106 -92 114 5 8 4 10 -4 5 -6 -4 -18 0 -27 9 -14 13 -14 18 -2
32 9 12 9 15 1 9 -7 -4 -13 -2 -13 3 0 6 -5 11 -11 11 -8 0 -8 -5 1 -15 21
-26 -1 -16 -27 11 l-24 26 43 -7 c141 -24 403 -119 554 -203 138 -76 341 -228
336 -251 -1 -7 2 -10 7 -7 5 4 13 1 17 -5 8 -13 19 0 90 104 34 49 50 65 59
57 8 -7 12 -5 12 5 0 8 -4 12 -9 9 -14 -9 -9 6 14 36 11 16 26 26 31 23 6 -3
7 -1 3 5 -3 6 7 26 24 45 25 29 36 34 65 31 19 -1 37 1 40 6 4 6 -2 7 -12 3
-14 -5 -16 -3 -6 7 10 11 9 16 -4 25 -18 14 -8 39 12 31 8 -3 19 3 27 12 9 11
10 14 1 8 -7 -4 -13 -3 -13 2 0 12 35 43 42 37 2 -3 18 10 34 27 16 18 21 26
12 19 -10 -7 -18 -9 -18 -4 0 16 96 104 105 96 4 -5 5 -3 2 3 -9 16 108 128
124 119 7 -5 10 -4 6 2 -8 13 68 87 81 79 5 -3 9 0 8 7 0 6 4 14 9 16 6 3 18
15 28 28 22 27 36 30 32 6 -1 -10 -9 -17 -17 -17 -8 1 -15 -5 -15 -13 0 -11 4
-11 21 1 12 7 20 23 20 35 -1 22 25 47 158 149 68 52 91 65 68 37 -9 -10 -9
-15 -1 -15 10 0 15 13 12 32 -1 9 154 118 167 118 6 0 12 4 14 8 4 10 122 92
132 92 4 0 4 -5 0 -12 -4 -7 -3 -8 5 -4 6 4 9 11 6 16 -8 13 193 130 386 224
167 82 362 156 404 155 l20 0 -20 -9z m-1765 -1175 c-7 -9 -15 -13 -19 -10 -3
3 1 10 9 15 21 14 24 12 10 -5z m-93 -128 c-4 -12 -37 -19 -37 -8 0 4 5 12 12
19 13 13 31 6 25 -11z"/>
<path d="M7200 5529 c0 -5 5 -7 10 -4 6 3 10 8 10 11 0 2 -4 4 -10 4 -5 0 -10
-5 -10 -11z"/>
<path d="M7036 5481 c-4 -5 3 -7 14 -4 23 6 26 13 6 13 -8 0 -17 -4 -20 -9z"/>
<path d="M6842 5391 c-11 -7 -11 -9 0 -14 9 -3 15 1 15 9 0 8 -1 14 -1 14 -1
0 -7 -4 -14 -9z"/>
<path d="M6604 5268 l-19 -23 23 19 c21 18 27 26 19 26 -2 0 -12 -10 -23 -22z"/>
<path d="M6321 5081 c-18 -14 -21 -20 -11 -26 8 -5 11 -4 6 3 -3 6 3 13 14 17
11 3 20 11 20 16 0 12 -1 12 -29 -10z"/>
<path d="M7126 5085 c-11 -8 -16 -15 -10 -15 5 0 18 7 28 15 11 8 16 15 10 15
-5 0 -18 -7 -28 -15z"/>
<path d="M6275 5060 c-3 -5 -1 -10 4 -10 6 0 11 5 11 10 0 6 -2 10 -4 10 -3 0
-8 -4 -11 -10z"/>
<path d="M6355 5060 c3 -5 8 -10 11 -10 2 0 4 5 4 10 0 6 -5 10 -11 10 -5 0
-7 -4 -4 -10z"/>
<path d="M6970 5025 c1 -5 1 -12 0 -15 -1 -3 -3 -13 -5 -23 -3 -14 0 -16 10
-7 14 11 14 34 1 47 -4 4 -7 4 -6 -2z"/>
<path d="M7003 5015 c0 -7 6 -11 14 -8 7 3 13 6 13 8 0 2 -6 5 -13 8 -8 3 -14
-1 -14 -8z"/>
<path d="M6215 5010 c14 -23 15 -42 2 -37 -7 2 -12 9 -12 15 0 5 -3 13 -7 17
-9 9 -5 -17 6 -33 4 -7 13 -11 19 -9 17 5 16 35 -1 49 -13 11 -14 11 -7 -2z"/>
<path d="M6877 4947 c-3 -8 1 -14 8 -14 7 0 11 6 8 14 -3 7 -6 13 -8 13 -2 0
-5 -6 -8 -13z"/>
<path d="M6086 4922 c-2 -4 4 -8 14 -8 10 0 16 4 14 8 -3 4 -9 8 -14 8 -5 0
-11 -4 -14 -8z"/>
<path d="M6820 4913 c15 -7 12 -26 -3 -20 -8 3 -14 -1 -14 -8 0 -11 5 -11 19
-4 20 11 20 31 0 35 -7 1 -8 0 -2 -3z"/>
<path d="M6044 4888 l-19 -23 23 19 c12 11 22 21 22 23 0 8 -8 2 -26 -19z"/>
<path d="M6130 4896 c0 -2 7 -7 16 -10 8 -3 12 -2 9 4 -6 10 -25 14 -25 6z"/>
<path d="M6755 4849 c-4 -6 -14 -8 -24 -4 -13 5 -14 4 -3 -6 10 -11 15 -10 29
4 10 9 14 17 11 17 -4 0 -10 -5 -13 -11z"/>
<path d="M5966 4831 c-12 -13 -14 -21 -6 -26 6 -3 9 -1 8 6 -2 6 3 14 11 17 8
2 11 0 7 -6 -3 -6 -2 -13 3 -17 6 -3 8 4 6 16 -6 30 -9 32 -29 10z"/>
<path d="M6640 4786 c0 -2 8 -10 18 -17 15 -13 16 -12 3 4 -13 16 -21 21 -21
13z"/>
<path d="M6558 4703 c6 -2 9 -10 6 -15 -4 -7 -2 -8 5 -4 13 9 5 26 -12 25 -9
0 -8 -2 1 -6z"/>
<path d="M6480 4620 c-8 -5 -12 -12 -9 -15 4 -3 12 1 19 10 14 17 11 19 -10 5z"/>
<path d="M5694 4588 l-19 -23 23 19 c21 18 27 26 19 26 -2 0 -12 -10 -23 -22z"/>
<path d="M6336 4504 c-5 -14 -4 -15 9 -4 17 14 19 20 6 20 -5 0 -12 -7 -15
-16z"/>
<path d="M5574 4468 l-29 -33 31 28 c17 15 34 24 39 20 4 -5 5 -2 1 5 -9 16
-8 17 -42 -20z"/>
<path d="M6294 4448 l-19 -23 23 19 c12 11 22 21 22 23 0 8 -8 2 -26 -19z"/>
<path d="M5556 4421 c-3 -5 1 -12 10 -15 22 -8 25 -4 9 11 -8 7 -16 9 -19 4z"/>
<path d="M6248 4406 c-10 -7 -31 -12 -48 -11 -27 2 -29 0 -15 -15 11 -12 12
-19 3 -28 -28 -28 5 -9 47 28 43 37 52 56 13 26z m-28 -26 c0 -5 -4 -10 -10
-10 -5 0 -10 5 -10 10 0 6 5 10 10 10 6 0 10 -4 10 -10z"/>
<path d="M6160 4370 c0 -5 5 -10 11 -10 5 0 7 5 4 10 -3 6 -8 10 -11 10 -2 0
-4 -4 -4 -10z"/>
<path d="M4310 4350 c8 -5 20 -10 25 -10 6 0 3 5 -5 10 -8 5 -19 10 -25 10 -5
0 -3 -5 5 -10z"/>
<path d="M4237 4339 c7 -7 15 -10 18 -7 3 3 -2 9 -12 12 -14 6 -15 5 -6 -5z"/>
<path d="M5486 4328 c3 -5 10 -6 15 -3 13 9 11 12 -6 12 -8 0 -12 -4 -9 -9z"/>
<path d="M4274 4308 c-3 -4 -4 -8 -2 -9 25 -6 35 -5 35 5 0 14 -25 17 -33 4z"/>
<path d="M4488 4288 c5 -5 16 -8 23 -6 8 3 3 7 -10 11 -17 4 -21 3 -13 -5z"/>
<path d="M6085 4270 c-3 -5 -4 -14 -1 -19 3 -5 -1 -14 -9 -21 -12 -10 -19 -10
-32 1 -17 12 -17 12 0 -6 17 -19 18 -19 55 20 20 21 26 30 13 20 -22 -18 -24
-18 -18 -2 7 18 2 23 -8 7z"/>
<path d="M4477 4259 c7 -7 15 -10 18 -7 3 3 -2 9 -12 12 -14 6 -15 5 -6 -5z"/>
<path d="M4558 4253 c7 -3 16 -2 19 1 4 3 -2 6 -13 5 -11 0 -14 -3 -6 -6z"/>
<path d="M4330 4236 c0 -2 7 -9 15 -16 13 -11 14 -10 9 4 -5 14 -24 23 -24 12z"/>
<path d="M6033 4203 c8 -13 -17 -36 -28 -25 -5 4 -5 2 -1 -5 8 -15 32 -7 40
12 3 8 0 17 -6 21 -6 4 -8 3 -5 -3z"/>
<path d="M4680 4190 c-8 -5 -10 -10 -5 -10 6 0 17 5 25 10 8 5 11 10 5 10 -5
0 -17 -5 -25 -10z"/>
<path d="M4400 4156 c0 -3 9 -10 19 -16 15 -7 22 -7 27 2 4 7 4 10 -1 6 -4 -4
-16 -3 -26 3 -11 5 -19 7 -19 5z"/>
<path d="M5939 4133 c-1 -5 -2 -20 -3 -35 l-2 -28 23 22 c17 16 20 24 12 35
-12 14 -28 17 -30 6z m17 -30 c-10 -10 -19 5 -10 18 6 11 8 11 12 0 2 -7 1
-15 -2 -18z"/>
<path d="M4806 4101 c-5 -8 40 -9 47 -1 3 3 -6 6 -19 6 -13 1 -26 -1 -28 -5z"/>
<path d="M4488 4069 c18 -20 39 -36 47 -36 8 0 12 4 9 9 -3 5 -9 6 -14 3 -5
-3 -11 -1 -15 5 -6 9 8 14 28 11 5 -1 6 3 2 9 -4 7 -12 7 -23 1 -13 -7 -24 -4
-42 12 -14 12 -10 6 8 -14z"/>
<path d="M4890 4076 c0 -2 12 -12 28 -21 l27 -18 -19 21 c-17 20 -36 29 -36
18z"/>
<path d="M5865 4060 c3 -5 8 -10 11 -10 2 0 4 5 4 10 0 6 -5 10 -11 10 -5 0
-7 -4 -4 -10z"/>
<path d="M4880 4056 c0 -2 7 -9 15 -16 9 -7 15 -8 15 -2 0 5 -7 12 -15 16 -8
3 -15 4 -15 2z"/>
<path d="M5256 4047 c3 -10 9 -15 12 -12 3 3 0 11 -7 18 -10 9 -11 8 -5 -6z"/>
<path d="M5200 4017 c-13 -18 -17 -26 -8 -19 10 8 22 11 27 7 7 -3 8 0 5 9 -8
21 6 20 23 -1 12 -16 12 -14 2 10 -7 15 -15 27 -18 26 -3 0 -17 -14 -31 -32z"/>
<path d="M5880 4023 c0 -9 -10 -28 -22 -42 l-23 -26 27 23 c27 24 43 62 27 62
-5 0 -9 -8 -9 -17z"/>
<path d="M4894 4016 c11 -9 24 -16 30 -16 12 0 7 5 -24 19 -24 11 -24 11 -6
-3z"/>
<path d="M5170 3976 c0 -2 7 -9 15 -16 13 -11 14 -10 9 4 -5 14 -24 23 -24 12z"/>
<path d="M5053 3953 c4 -3 1 -13 -6 -22 -11 -14 -10 -14 5 -2 16 12 16 31 1
31 -4 0 -3 -3 0 -7z"/>
<path d="M5149 3943 c-13 -16 -12 -17 4 -4 16 13 21 21 13 21 -2 0 -10 -8 -17
-17z"/>
<path d="M4624 3929 c-3 -6 -2 -15 3 -20 5 -5 9 -1 9 11 0 23 -2 24 -12 9z"/>
<path d="M4666 3878 c10 -14 21 -24 23 -22 3 3 -6 15 -18 27 l-24 22 19 -27z"/>
<path d="M4751 3754 c0 -11 3 -14 6 -6 3 7 2 16 -1 19 -3 4 -6 -2 -5 -13z"/>
<path d="M5657 3745 c3 -8 9 -12 14 -9 12 7 11 11 -5 17 -10 4 -13 1 -9 -8z"/>
<path d="M4816 3668 c3 -5 10 -6 15 -3 13 9 11 12 -6 12 -8 0 -12 -4 -9 -9z"/>
<path d="M4890 3573 c0 -5 10 -18 23 -29 l22 -19 -20 25 c-11 14 -21 27 -22
29 -2 2 -3 0 -3 -6z"/>
<path d="M4930 3513 c0 -6 8 -17 18 -24 16 -13 16 -13 2 6 -8 11 -16 22 -17
24 -2 2 -3 0 -3 -6z"/>
<path d="M5471 3500 c14 -31 19 -36 19 -24 0 6 -7 19 -16 30 -14 18 -14 18 -3
-6z"/>
<path d="M4980 3444 c0 -6 7 -19 16 -30 14 -18 14 -18 3 6 -14 31 -19 36 -19
24z"/>
<path d="M5052 3330 c7 -11 16 -20 20 -20 5 0 3 9 -4 20 -7 11 -16 20 -20 20
-5 0 -3 -9 4 -20z"/>
<path d="M5086 3305 c-9 -26 -7 -32 5 -12 6 10 9 21 6 23 -2 3 -7 -2 -11 -11z"/>
<path d="M5315 3269 c-4 -6 -5 -12 -2 -15 2 -3 7 2 10 11 7 17 1 20 -8 4z"/>
<path d="M5336 3255 c-9 -26 -7 -32 5 -12 6 10 9 21 6 23 -2 3 -7 -2 -11 -11z"/>
<path d="M5144 3188 c-4 -7 -4 -10 1 -6 4 4 15 2 24 -5 14 -11 14 -10 2 6 -16
20 -18 21 -27 5z"/>
<path d="M5249 3103 c-13 -16 -12 -17 4 -4 9 7 17 15 17 17 0 8 -8 3 -21 -13z"/>
<path d="M5223 3065 c-3 -9 -3 -18 -1 -21 3 -3 8 4 11 16 6 23 -1 27 -10 5z"/>
</g>
</svg>
